<svg xmlns="http://www.w3.org/2000/svg" width="810" height="115" fill="none">
	<g id="svgGroup" stroke-linecap="round" fill-rule="evenodd" font-size="9pt" stroke="#f2f2f2" stroke-width=".02 mm" fill="#f2f2f2" style="stroke:#f2f2f2;stroke-width:.02 mm;fill:#f2f2f2">
		<path d="M 81.702 1.226 L 106.08 1.226 L 89.556 73.442 L 61.404 73.442 L 53.04 32.438 L 44.676 73.442 L 16.524 73.442 L 0 1.226 L 24.378 1.226 L 30.906 46.718 L 40.698 1.226 L 65.382 1.226 L 75.174 46.718 L 81.702 1.226 Z M 684.522 1.226 L 708.9 1.226 L 692.376 73.442 L 664.224 73.442 L 655.86 32.438 L 647.496 73.442 L 619.344 73.442 L 602.82 1.226 L 627.198 1.226 L 633.726 46.718 L 643.518 1.226 L 668.202 1.226 L 677.994 46.718 L 684.522 1.226 Z M 498.576 25.91 L 474.708 25.91 A 8.653 8.653 0 0 0 471.383 22.824 A 10.527 10.527 0 0 0 470.934 22.595 A 11.329 11.329 0 0 0 468.231 21.715 Q 466.752 21.422 465.018 21.422 A 16.11 16.11 0 0 0 460.794 21.945 A 11.396 11.396 0 0 0 454.92 25.655 A 14.304 14.304 0 0 0 452.108 31.123 Q 451.516 33.251 451.386 35.783 A 28.349 28.349 0 0 0 451.35 37.232 A 28.76 28.76 0 0 0 451.701 41.881 Q 452.531 46.94 455.328 49.88 A 12.317 12.317 0 0 0 460.353 53.008 Q 462.342 53.692 464.785 53.932 A 28.462 28.462 0 0 0 467.568 54.062 A 15.699 15.699 0 0 0 474.459 52.578 Q 477.539 51.098 479.904 48.139 A 19.741 19.741 0 0 0 480.216 47.738 L 462.162 47.738 L 462.162 31.724 L 498.984 31.724 L 498.984 54.368 A 42.773 42.773 0 0 1 488.04 66.713 A 50.223 50.223 0 0 1 486.03 68.189 A 30.903 30.903 0 0 1 475.011 72.926 Q 470.456 73.952 465.12 73.952 A 45.778 45.778 0 0 1 455.24 72.932 A 35.273 35.273 0 0 1 445.587 69.311 Q 437.274 64.67 432.837 56.306 Q 428.4 47.942 428.4 37.232 A 44.221 44.221 0 0 1 429.652 26.515 A 36.668 36.668 0 0 1 432.837 18.158 Q 437.274 9.794 445.536 5.153 A 35.792 35.792 0 0 1 457.61 1.061 A 46.966 46.966 0 0 1 464.916 0.512 Q 477.709 0.512 486.226 6.077 A 29.397 29.397 0 0 1 488.019 7.346 A 27.052 27.052 0 0 1 498.522 25.539 A 35.248 35.248 0 0 1 498.576 25.91 Z M 1101.396 25.91 L 1077.528 25.91 A 8.653 8.653 0 0 0 1074.203 22.824 A 10.527 10.527 0 0 0 1073.754 22.595 A 11.329 11.329 0 0 0 1071.051 21.715 Q 1069.572 21.422 1067.838 21.422 A 16.11 16.11 0 0 0 1063.614 21.945 A 11.396 11.396 0 0 0 1057.74 25.655 A 14.304 14.304 0 0 0 1054.928 31.123 Q 1054.336 33.251 1054.206 35.783 A 28.349 28.349 0 0 0 1054.17 37.232 A 28.76 28.76 0 0 0 1054.521 41.881 Q 1055.351 46.94 1058.148 49.88 A 12.317 12.317 0 0 0 1063.173 53.008 Q 1065.162 53.692 1067.605 53.932 A 28.462 28.462 0 0 0 1070.388 54.062 A 15.699 15.699 0 0 0 1077.279 52.578 Q 1080.359 51.098 1082.724 48.139 A 19.741 19.741 0 0 0 1083.036 47.738 L 1064.982 47.738 L 1064.982 31.724 L 1101.804 31.724 L 1101.804 54.368 A 42.773 42.773 0 0 1 1090.86 66.713 A 50.223 50.223 0 0 1 1088.85 68.189 A 30.903 30.903 0 0 1 1077.831 72.926 Q 1073.276 73.952 1067.94 73.952 A 45.778 45.778 0 0 1 1058.06 72.932 A 35.273 35.273 0 0 1 1048.407 69.311 Q 1040.094 64.67 1035.657 56.306 Q 1031.22 47.942 1031.22 37.232 A 44.221 44.221 0 0 1 1032.472 26.515 A 36.668 36.668 0 0 1 1035.657 18.158 Q 1040.094 9.794 1048.356 5.153 A 35.792 35.792 0 0 1 1060.43 1.061 A 46.966 46.966 0 0 1 1067.736 0.512 Q 1080.529 0.512 1089.046 6.077 A 29.397 29.397 0 0 1 1090.839 7.346 A 27.052 27.052 0 0 1 1101.342 25.539 A 35.248 35.248 0 0 1 1101.396 25.91 Z M 420.24 1.226 L 420.24 73.442 L 397.596 73.442 L 373.626 37.13 L 373.626 73.442 L 350.982 73.442 L 350.982 1.226 L 373.626 1.226 L 397.596 38.15 L 397.596 1.226 L 420.24 1.226 Z M 1023.06 1.226 L 1023.06 73.442 L 1000.416 73.442 L 976.446 37.13 L 976.446 73.442 L 953.802 73.442 L 953.802 1.226 L 976.446 1.226 L 1000.416 38.15 L 1000.416 1.226 L 1023.06 1.226 Z M 162.384 19.28 L 136.884 19.28 L 136.884 28.154 L 159.324 28.154 L 159.324 45.188 L 136.884 45.188 L 136.884 55.388 L 162.384 55.388 L 162.384 73.442 L 114.24 73.442 L 114.24 1.226 L 162.384 1.226 L 162.384 19.28 Z M 765.204 19.28 L 739.704 19.28 L 739.704 28.154 L 762.144 28.154 L 762.144 45.188 L 739.704 45.188 L 739.704 55.388 L 765.204 55.388 L 765.204 73.442 L 717.06 73.442 L 717.06 1.226 L 765.204 1.226 L 765.204 19.28 Z M 310.998 73.442 L 286.11 73.442 L 272.544 47.534 L 272.442 47.534 L 272.442 73.442 L 249.798 73.442 L 249.798 1.226 L 283.458 1.226 A 41.343 41.343 0 0 1 290.406 1.78 Q 294.368 2.456 297.655 3.956 A 24.985 24.985 0 0 1 298.452 4.337 A 24.002 24.002 0 0 1 303.969 8.075 A 20.007 20.007 0 0 1 307.785 12.803 A 23.165 23.165 0 0 1 310.844 23.177 A 28.042 28.042 0 0 1 310.896 24.89 Q 310.896 32.132 306.867 37.742 A 20.885 20.885 0 0 1 298.948 44.328 A 27.567 27.567 0 0 1 295.29 45.8 L 310.998 73.442 Z M 913.818 73.442 L 888.93 73.442 L 875.364 47.534 L 875.262 47.534 L 875.262 73.442 L 852.618 73.442 L 852.618 1.226 L 886.278 1.226 A 41.343 41.343 0 0 1 893.226 1.78 Q 897.188 2.456 900.475 3.956 A 24.985 24.985 0 0 1 901.272 4.337 A 24.002 24.002 0 0 1 906.789 8.075 A 20.007 20.007 0 0 1 910.605 12.803 A 23.165 23.165 0 0 1 913.664 23.177 A 28.042 28.042 0 0 1 913.716 24.89 Q 913.716 32.132 909.687 37.742 A 20.885 20.885 0 0 1 901.768 44.328 A 27.567 27.567 0 0 1 898.11 45.8 L 913.818 73.442 Z M 220.83 73.442 L 217.26 62.528 L 193.188 62.528 L 189.618 73.442 L 165.852 73.442 L 192.27 1.226 L 218.382 1.226 L 244.698 73.442 L 220.83 73.442 Z M 823.65 73.442 L 820.08 62.528 L 796.008 62.528 L 792.438 73.442 L 768.672 73.442 L 795.09 1.226 L 821.202 1.226 L 847.518 73.442 L 823.65 73.442 Z M 542.334 74.156 Q 532.134 74.156 523.617 69.362 Q 515.1 64.568 510.102 56.102 A 36.279 36.279 0 0 1 505.156 39.161 A 43.703 43.703 0 0 1 505.104 37.028 Q 505.104 26.42 510.102 17.954 Q 515.1 9.488 523.617 4.745 Q 532.134 0.002 542.334 0.002 Q 552.534 0.002 561 4.745 Q 569.466 9.488 574.413 17.954 A 36.443 36.443 0 0 1 579.283 34.41 A 43.859 43.859 0 0 1 579.36 37.028 A 39.018 39.018 0 0 1 577.428 49.451 A 35.267 35.267 0 0 1 574.413 56.102 Q 569.466 64.568 560.949 69.362 Q 552.432 74.156 542.334 74.156 Z M 1145.154 74.156 Q 1134.954 74.156 1126.437 69.362 Q 1117.92 64.568 1112.922 56.102 A 36.279 36.279 0 0 1 1107.976 39.161 A 43.703 43.703 0 0 1 1107.924 37.028 Q 1107.924 26.42 1112.922 17.954 Q 1117.92 9.488 1126.437 4.745 Q 1134.954 0.002 1145.154 0.002 Q 1155.354 0.002 1163.82 4.745 Q 1172.286 9.488 1177.233 17.954 A 36.443 36.443 0 0 1 1182.103 34.41 A 43.859 43.859 0 0 1 1182.18 37.028 A 39.018 39.018 0 0 1 1180.248 49.451 A 35.267 35.267 0 0 1 1177.233 56.102 Q 1172.286 64.568 1163.769 69.362 Q 1155.252 74.156 1145.154 74.156 Z M 318.138 1.226 L 340.782 1.226 L 340.782 73.442 L 318.138 73.442 L 318.138 1.226 Z M 920.958 1.226 L 943.602 1.226 L 943.602 73.442 L 920.958 73.442 L 920.958 1.226 Z M 542.334 53.042 A 16.709 16.709 0 0 0 546.689 52.506 A 11.728 11.728 0 0 0 552.738 48.707 A 14.756 14.756 0 0 0 555.707 42.878 Q 556.41 40.241 556.41 37.028 Q 556.41 29.582 552.738 25.247 A 11.95 11.95 0 0 0 545.509 21.183 A 17.759 17.759 0 0 0 542.334 20.912 A 17.207 17.207 0 0 0 538.009 21.424 A 11.749 11.749 0 0 0 531.828 25.247 Q 528.494 29.183 528.187 35.684 A 28.513 28.513 0 0 0 528.156 37.028 A 23.825 23.825 0 0 0 528.61 41.82 Q 529.212 44.75 530.611 47.026 A 13.687 13.687 0 0 0 531.828 48.707 A 11.92 11.92 0 0 0 538.833 52.718 A 17.967 17.967 0 0 0 542.334 53.042 Z M 1145.154 53.042 A 16.709 16.709 0 0 0 1149.509 52.506 A 11.728 11.728 0 0 0 1155.558 48.707 A 14.756 14.756 0 0 0 1158.527 42.878 Q 1159.23 40.241 1159.23 37.028 Q 1159.23 29.582 1155.558 25.247 A 11.95 11.95 0 0 0 1148.329 21.183 A 17.759 17.759 0 0 0 1145.154 20.912 A 17.207 17.207 0 0 0 1140.829 21.424 A 11.749 11.749 0 0 0 1134.648 25.247 Q 1131.314 29.183 1131.007 35.684 A 28.513 28.513 0 0 0 1130.976 37.028 A 23.825 23.825 0 0 0 1131.43 41.82 Q 1132.032 44.75 1133.431 47.026 A 13.687 13.687 0 0 0 1134.648 48.707 A 11.92 11.92 0 0 0 1141.653 52.718 A 17.967 17.967 0 0 0 1145.154 53.042 Z M 198.696 45.494 L 211.752 45.494 L 205.224 25.4 L 198.696 45.494 Z M 801.516 45.494 L 814.572 45.494 L 808.044 25.4 L 801.516 45.494 Z M 272.442 20.198 L 272.442 32.438 L 281.418 32.438 A 11.523 11.523 0 0 0 283.212 32.308 Q 284.159 32.158 284.916 31.837 A 4.92 4.92 0 0 0 286.314 30.959 A 4.541 4.541 0 0 0 287.538 29.059 Q 287.799 28.316 287.893 27.4 A 10.616 10.616 0 0 0 287.946 26.318 A 7.801 7.801 0 0 0 287.731 24.433 A 5.336 5.336 0 0 0 286.263 21.83 A 5.424 5.424 0 0 0 284.019 20.545 Q 282.875 20.198 281.418 20.198 L 272.442 20.198 Z M 875.262 20.198 L 875.262 32.438 L 884.238 32.438 A 11.523 11.523 0 0 0 886.032 32.308 Q 886.979 32.158 887.736 31.837 A 4.92 4.92 0 0 0 889.134 30.959 A 4.541 4.541 0 0 0 890.358 29.059 Q 890.619 28.316 890.713 27.4 A 10.616 10.616 0 0 0 890.766 26.318 A 7.801 7.801 0 0 0 890.551 24.433 A 5.336 5.336 0 0 0 889.083 21.83 A 5.424 5.424 0 0 0 886.839 20.545 Q 885.695 20.198 884.238 20.198 L 875.262 20.198 Z" vector-effect="non-scaling-stroke" />
	</g>
</svg>
